<?xml version="1.0" encoding="UTF-8"?>
<svg id="Layer_1" xmlns="http://www.w3.org/2000/svg" version="1.1" xmlns:xlink="http://www.w3.org/1999/xlink" viewBox="0 0 335 70">
  <!-- Generator: Adobe Illustrator 30.3.0, SVG Export Plug-In . SVG Version: 2.1.3 Build 182)  -->
  <defs>
    <style>
      .st0 {
        fill: url(#linear-gradient2);
      }

      .st1 {
        fill: #e68a00;
      }

      .st2 {
        fill: #fff;
      }

      .st3 {
        fill: url(#linear-gradient1);
      }

      .st4 {
        fill: url(#linear-gradient3);
      }

      .st5 {
        fill: url(#linear-gradient);
      }
    </style>
    <linearGradient id="linear-gradient" x1="64.2" y1="19" x2="107" y2="19" gradientTransform="translate(0 72) scale(1 -1)" gradientUnits="userSpaceOnUse">
      <stop offset="0" stop-color="#e68a00"/>
      <stop offset=".29" stop-color="#e68a00" stop-opacity=".92"/>
      <stop offset="1" stop-color="#e68a00" stop-opacity="0"/>
    </linearGradient>
    <linearGradient id="linear-gradient1" x1="65.8" y1="52.35" x2="194.8" y2="52.35" gradientTransform="translate(0 72) scale(1 -1)" gradientUnits="userSpaceOnUse">
      <stop offset="0" stop-color="#e68a00"/>
      <stop offset=".29" stop-color="#e68a00" stop-opacity=".92"/>
      <stop offset="1" stop-color="#e68a00" stop-opacity="0"/>
    </linearGradient>
    <linearGradient id="linear-gradient2" x1="64.2" y1="19" x2="107" y2="19" gradientTransform="translate(0 72) scale(1 -1)" gradientUnits="userSpaceOnUse">
      <stop offset="0" stop-color="#e68a00"/>
      <stop offset=".29" stop-color="#e68a00" stop-opacity=".92"/>
      <stop offset="1" stop-color="#e68a00" stop-opacity="0"/>
    </linearGradient>
    <linearGradient id="linear-gradient3" x1="65.8" y1="52.35" x2="194.8" y2="52.35" gradientTransform="translate(0 72) scale(1 -1)" gradientUnits="userSpaceOnUse">
      <stop offset="0" stop-color="#e68a00"/>
      <stop offset=".29" stop-color="#e68a00" stop-opacity=".92"/>
      <stop offset="1" stop-color="#e68a00" stop-opacity="0"/>
    </linearGradient>
  </defs>
  <g>
    <path class="st2" d="M53.7,29.8c1.7,1.7,2.6,3.8,2.6,6.2v9.8h-7.7v-9.4c0-.8-.3-1.5-.9-2.1-.6-.6-1.3-.9-2.1-.9h-21.4v12.3h-7.2v-13.8l-3.1-3.1,4.9-4.9,3.3,3.2h25.5c2.3.1,4.4,1,6.1,2.7Z"/>
    <path class="st2" d="M72.4,34h30.6v5.1h-30.6v1.4h30.6v5.4h-30.7c-2.4,0-4.5-.9-6.2-2.6-1.7-1.7-2.6-3.8-2.6-6.2v-1c0-2.4.9-4.5,2.6-6.2s3.8-2.6,6.2-2.6h30.7v5.4h-30.6v1.3Z"/>
    <path class="st2" d="M146.6,29.8c-1.4-1.7-3.1-2.6-5-2.6h-25.3c-2,0-3.6.9-5,2.6s-2.1,3.8-2.1,6.2v1c0,2.4.7,4.5,2.1,6.2s3.1,2.5,5,2.6h25.3c1.9,0,3.6-.9,5-2.6,1.4-1.7,2.1-3.8,2.1-6.2v-1c.1-2.4-.6-4.5-2.1-6.2ZM142.4,36.8c0,.8-.2,1.5-.7,2.1s-1.1.9-1.7.9h-22c-.7,0-1.2-.3-1.7-.9-.5-.6-.7-1.3-.7-2.1v-.3c0-.8.2-1.5.7-2.1s1-.9,1.7-.9h21.9c.7,0,1.3.3,1.7.9.5.6.7,1.3.7,2.1v.3h.1Z"/>
    <path class="st2" d="M194.3,39.8v6.1h-30.7c-2.4,0-4.5-.9-6.2-2.6-1.7-1.7-2.6-3.8-2.6-6.2v-1c0-2.4.9-4.5,2.6-6.2,1.7-1.7,3.8-2.6,6.2-2.6h30.7v6.4h-28.7c-.8,0-1.5.3-2.1.9-.6.6-.9,1.3-.9,2.1v.3c0,.8.3,1.5.9,2.1.6.6,1.3.9,2.1.9h28.7v-.2Z"/>
    <path class="st2" d="M231.6,34.3c-.6-.5-1.2-.7-1.9-.7h-21.6v12.3h-7.1v-18.7h30.7c2.4,0,4.5.9,6.2,2.6s2.6,3.8,2.6,6.2h-7.8c-.2-.6-.5-1.2-1.1-1.7Z"/>
    <path class="st2" d="M284.4,29.8c-1.4-1.7-3.1-2.6-5-2.6h-25.3c-2,0-3.6.9-5,2.6s-2.1,3.8-2.1,6.2v1c0,2.4.7,4.5,2.1,6.2,1.4,1.7,3.1,2.5,5,2.6h25.3c1.9,0,3.6-.9,5-2.6,1.4-1.7,2.1-3.8,2.1-6.2v-1c.1-2.4-.6-4.5-2.1-6.2ZM280.2,36.8c0,.8-.2,1.5-.7,2.1s-1.1.9-1.7.9h-21.9c-.7,0-1.2-.3-1.7-.9-.5-.6-.7-1.3-.7-2.1v-.3c0-.8.2-1.5.7-2.1s1-.9,1.7-.9h21.9c.7,0,1.3.3,1.7.9.5.6.7,1.3.7,2.1v.3Z"/>
    <path class="st2" d="M332.4,29.8c1.7,1.7,2.6,3.8,2.6,6.2v9.8h-7.7v-9.4c0-.8-.3-1.5-.9-2.1s-1.3-.9-2.1-.9h-21.4v12.3h-7.2v-13.8l-3.1-3.1,4.9-4.9,3.3,3.2h25.5c2.3.1,4.4,1,6.1,2.7Z"/>
  </g>
  <rect class="st5" x="64.2" y="51.7" width="42.8" height="2.6"/>
  <rect class="st3" x="65.8" y="18.4" width="129" height="2.5"/>
  <path class="st1" d="M61.5,48.9c-5,9.5-15,16-26.5,16-16.5,0-29.9-13.4-29.9-29.9S18.5,5.1,35,5.1c12.4,0,23,7.5,27.6,18.3,1.4-1.1,2.9-1.9,4.5-2.4C61.6,8.6,49.3,0,35,0,15.7,0,0,15.7,0,35s15.7,35,35,35c13.3,0,24.8-7.4,30.7-18.3-1.5-.7-2.9-1.6-4.2-2.8Z"/>
  <rect class="st0" x="64.2" y="51.7" width="42.8" height="2.6"/>
  <rect class="st4" x="65.8" y="18.4" width="129" height="2.5"/>
  <path class="st1" d="M61.5,48.9c-5,9.5-15,16-26.5,16-16.5,0-29.9-13.4-29.9-29.9S18.5,5.1,35,5.1c12.4,0,23,7.5,27.6,18.3,1.4-1.1,2.9-1.9,4.5-2.4C61.6,8.6,49.3,0,35,0,15.7,0,0,15.7,0,35s15.7,35,35,35c13.3,0,24.8-7.4,30.7-18.3-1.5-.7-2.9-1.6-4.2-2.8Z"/>
</svg>